<?xml version="1.0" standalone="no"?>
<!DOCTYPE svg PUBLIC "-//W3C//DTD SVG 20010904//EN"
 "http://www.w3.org/TR/2001/REC-SVG-20010904/DTD/svg10.dtd">
<svg version="1.0" xmlns="http://www.w3.org/2000/svg"
 width="304.000000pt" height="261.000000pt" viewBox="0 0 304.000000 261.000000"
 preserveAspectRatio="xMidYMid meet">

<g transform="translate(0.000000,261.000000) scale(0.100000,-0.100000)"
fill="#000000" stroke="none">
<path d="M1454 2530 c-138 -15 -286 -123 -349 -254 -37 -78 -61 -196 -50 -253
6 -31 4 -33 -12 -24 -45 27 -116 99 -109 112 4 8 13 25 21 39 22 37 19 116 -6
156 -32 52 -84 79 -150 78 -61 -1 -89 -16 -132 -71 -17 -21 -22 -41 -22 -88 0
-72 26 -122 79 -150 l35 -19 3 -90 3 -90 136 -86 c76 -47 152 -93 170 -103 33
-18 33 -18 13 0 -11 10 -31 26 -45 35 -20 14 -21 17 -6 17 10 1 16 5 13 10 -3
5 14 12 39 15 43 7 98 -10 107 -32 6 -17 128 -93 186 -117 161 -65 329 -28
499 111 56 45 77 51 144 37 33 -7 33 -7 9 -14 -24 -7 -24 -7 -2 -8 29 -1 28
-6 -5 -38 -16 -14 -21 -21 -13 -16 43 26 103 65 170 110 41 28 90 58 108 67
l32 17 0 90 c0 84 1 90 23 98 46 18 97 97 97 151 0 45 -35 106 -77 135 -30 20
-50 25 -97 25 -52 0 -64 -4 -101 -35 -67 -54 -78 -145 -29 -220 8 -12 12 -28
8 -36 -7 -18 -102 -99 -114 -99 -6 0 -10 33 -10 73 0 148 -57 270 -168 360
-115 93 -237 126 -398 107z m236 -131 c76 -36 149 -105 185 -175 27 -54 30
-68 30 -159 0 -55 -6 -119 -13 -142 -15 -50 -69 -130 -102 -152 -21 -14 -20
-10 9 26 28 36 31 44 20 56 -27 26 -163 127 -171 127 -5 0 -31 -18 -57 -40
-26 -22 -50 -40 -53 -40 -3 0 -28 18 -54 40 -27 22 -51 40 -54 40 -14 0 -170
-132 -170 -144 0 -7 11 -25 25 -40 35 -38 31 -43 -9 -9 -47 40 -92 127 -106
202 -32 178 72 359 241 421 79 29 205 24 279 -11z m-836 -130 c54 -43 18 -123
-53 -117 -47 4 -77 50 -58 88 12 24 50 50 73 50 6 0 23 -9 38 -21z m1469 -11
c23 -27 22 -63 -3 -88 -23 -23 -51 -25 -83 -9 -29 16 -37 28 -37 60 0 61 81
86 123 37z m-1368 -292 c28 -25 67 -51 88 -56 66 -19 41 -30 -65 -30 -129 0
-138 6 -138 100 0 37 3 70 7 73 4 4 18 -4 32 -17 14 -13 49 -45 76 -70z m1285
11 c0 -43 -5 -78 -12 -85 -17 -17 -231 -17 -226 1 3 6 20 13 38 15 25 3 52 21
109 73 41 38 78 69 83 69 4 0 8 -33 8 -73z m-744 -153 l45 -26 40 27 c21 16
42 25 45 22 4 -3 -7 -28 -23 -54 -16 -26 -35 -63 -42 -80 -7 -18 -17 -33 -21
-33 -4 0 -19 24 -35 53 -15 28 -37 67 -47 85 -24 39 -19 40 38 6z"/>
<path d="M1461 2302 c-47 -23 -72 -61 -78 -115 -10 -89 34 -156 118 -178 69
-18 130 7 170 69 72 114 5 242 -128 242 -26 0 -63 -8 -82 -18z"/>
<path d="M241 2026 c-89 -32 -151 -122 -151 -220 0 -91 45 -159 138 -205 l42
-21 0 -144 0 -144 -28 -11 c-43 -18 -82 -86 -82 -142 0 -26 4 -59 9 -72 13
-33 51 -73 79 -81 21 -7 22 -12 22 -110 l0 -102 -41 -18 c-57 -25 -109 -73
-130 -121 -26 -57 -25 -156 2 -212 66 -136 249 -172 364 -71 51 45 70 76 80
131 7 36 9 37 50 37 l43 0 4 -157 c4 -141 7 -163 28 -207 25 -52 77 -96 138
-118 29 -10 189 -13 742 -13 794 0 740 -5 818 78 55 60 65 103 63 274 l-2 143
43 0 43 0 12 -50 c57 -239 408 -229 463 13 25 112 -35 223 -149 273 l-41 18 0
96 0 97 37 24 c53 35 86 101 80 162 -5 56 -28 92 -80 126 l-37 24 0 144 c0
121 2 143 15 143 19 0 84 40 107 66 29 32 58 107 58 149 0 128 -102 235 -225
235 -88 0 -188 -72 -216 -157 -18 -57 -7 -151 24 -200 l27 -42 -68 -66 c-37
-35 -73 -65 -79 -65 -10 0 -13 24 -13 89 0 118 -6 143 -47 191 -43 49 -63 50
-128 4 -27 -20 -106 -73 -175 -120 -119 -80 -253 -173 -275 -191 -6 -4 -51
-35 -100 -67 -50 -33 -107 -73 -127 -88 l-37 -29 -43 31 c-24 17 -59 42 -78
55 -19 13 -93 63 -165 112 -363 248 -493 333 -511 333 -26 0 -81 -63 -93 -105
-6 -22 -11 -79 -11 -127 0 -64 -3 -88 -13 -88 -7 0 -43 30 -81 67 -55 55 -66
70 -57 83 62 86 70 186 22 262 -63 99 -170 140 -270 104z m119 -127 c49 -29
60 -47 60 -94 0 -106 -138 -140 -199 -49 -24 34 -24 38 -10 77 11 32 24 46 58
64 53 28 48 28 91 2z m2450 -6 c39 -27 49 -45 50 -89 1 -110 -151 -141 -204
-42 -24 44 -16 81 26 120 35 33 89 38 128 11z m-1943 -256 c32 -24 69 -50 82
-58 l24 -15 4 -235 c4 -181 8 -239 19 -256 l14 -23 530 0 529 0 15 22 c13 19
16 61 16 255 l0 233 28 17 c15 10 54 37 87 61 58 42 59 43 67 21 5 -12 7 -346
6 -741 l-3 -720 -28 -24 -28 -24 -678 0 c-448 0 -688 4 -708 10 -17 6 -35 22
-42 36 -10 23 -13 343 -11 1382 0 56 4 102 9 102 5 0 35 -19 68 -43z m1851
-193 l2 -139 -39 -22 c-34 -20 -55 -23 -139 -23 -54 0 -101 2 -104 5 -2 3 -2
19 0 36 l5 31 90 -3 c81 -4 91 -2 103 16 12 18 11 24 -2 43 -14 20 -24 22
-110 22 -61 0 -93 4 -89 10 3 6 16 10 28 10 14 0 56 33 111 84 78 73 93 83
115 76 l26 -6 3 -140z m-2219 66 c64 -58 95 -80 114 -80 15 0 27 -4 27 -9 0
-12 -102 -23 -144 -15 -40 7 -66 -7 -66 -37 0 -33 27 -49 75 -42 24 3 64 2 89
-1 43 -7 46 -9 46 -37 l0 -29 -106 0 c-99 0 -108 2 -145 28 l-39 27 0 131 c0
72 3 134 7 137 21 22 60 2 142 -73z m651 -79 c114 -84 255 -185 302 -216 75
-49 111 -46 205 21 37 26 95 66 128 89 33 23 96 68 140 101 44 33 92 67 108
77 l27 17 0 -215 0 -215 -519 0 -518 0 -7 32 c-3 18 -6 117 -6 220 l1 188 57
-40 c31 -23 68 -49 82 -59z m-771 -257 c25 -32 26 -52 5 -82 -23 -33 -97 -32
-119 2 -47 71 62 146 114 80z m2430 0 c42 -53 14 -106 -55 -106 -68 0 -96 61
-49 107 33 34 77 33 104 -1z m-2169 -24 l0 -30 -60 0 c-63 0 -79 11 -66 45 4
11 21 15 66 15 l60 0 0 -30z m1930 0 l0 -30 -70 0 c-67 0 -70 1 -70 23 0 34 6
37 77 37 l63 0 0 -30z m-1930 -141 l0 -32 -90 5 c-77 5 -91 3 -106 -13 -17
-19 -11 -58 9 -60 7 -1 50 -2 97 -3 l85 -1 3 -32 3 -33 -58 0 c-57 0 -60 -1
-107 -49 -46 -47 -49 -48 -75 -35 -14 8 -32 14 -38 14 -10 0 -13 26 -13 99 l0
99 29 12 c16 6 39 22 52 36 21 22 30 24 116 24 l93 0 0 -31z m2017 1 c18 -16
40 -30 48 -30 12 0 15 -19 15 -103 l0 -104 -41 -12 -42 -13 -46 46 c-42 41
-51 45 -101 48 -52 3 -55 4 -52 28 2 14 5 26 6 27 1 2 42 4 92 5 l89 3 3 29
c5 44 -9 50 -102 47 -77 -2 -85 -1 -91 18 -3 12 -3 25 0 31 3 5 47 10 97 10
86 0 92 -1 125 -30z m-2017 -315 l0 -75 -49 0 c-45 0 -50 3 -74 39 l-25 38 36
37 c29 29 44 36 74 36 l38 0 0 -75z m1900 39 l38 -36 -26 -39 c-23 -35 -30
-39 -68 -39 l-42 0 -4 68 c-3 37 -3 70 -1 75 2 4 18 7 34 7 22 0 42 -11 69
-36z m-2164 -93 c42 -19 74 -67 74 -111 0 -63 -69 -130 -135 -130 -46 0 -100
35 -119 79 -28 61 -6 123 57 161 40 25 70 25 123 1z m2472 -26 c98 -106 -36
-269 -161 -195 -65 39 -85 132 -40 183 61 68 143 74 201 12z"/>
<path d="M902 878 c-16 -16 -16 -70 0 -86 7 -7 29 -12 50 -12 l38 0 0 55 0 55
-38 0 c-21 0 -43 -5 -50 -12z"/>
<path d="M1070 835 l0 -55 120 0 120 0 0 55 0 55 -120 0 -120 0 0 -55z"/>
<path d="M1380 835 l0 -55 383 0 c359 0 385 1 400 18 22 24 21 55 -1 75 -17
15 -59 17 -400 17 l-382 0 0 -55z"/>
<path d="M1070 646 l0 -56 120 0 120 0 0 50 0 50 -59 0 c-32 0 -86 3 -120 6
l-61 7 0 -57z"/>
<path d="M1380 645 l0 -55 384 0 c417 0 416 0 416 54 0 50 -6 51 -417 54
l-383 2 0 -55z"/>
<path d="M897 683 c-4 -3 -7 -21 -7 -39 0 -38 21 -54 69 -54 30 0 31 1 31 50
l0 50 -43 0 c-24 0 -47 -3 -50 -7z"/>
<path d="M906 495 c-19 -19 -21 -66 -4 -83 7 -7 29 -12 51 -12 l38 0 -3 53
c-3 50 -4 52 -34 55 -19 2 -38 -3 -48 -13z"/>
<path d="M1067 483 c-3 -16 -3 -40 0 -55 l5 -28 542 0 c408 0 545 3 554 12 17
17 15 64 -4 82 -14 14 -78 16 -553 16 l-538 0 -6 -27z"/>
<path d="M914 310 c-24 -10 -33 -34 -24 -70 5 -22 12 -25 53 -28 l48 -3 -3 53
c-3 48 -5 53 -28 55 -14 1 -35 -2 -46 -7z"/>
<path d="M1067 313 c-4 -3 -7 -28 -7 -55 l0 -48 548 0 c413 0 551 3 560 12 20
20 14 65 -10 82 -20 14 -89 16 -554 16 -292 0 -534 -3 -537 -7z"/>
<path d="M259 581 c-36 -36 -37 -73 -4 -106 51 -52 145 -16 145 55 0 74 -87
105 -141 51z m86 -21 c38 -42 -14 -102 -56 -64 -23 21 -24 47 -3 68 21 21 37
20 59 -4z"/>
<path d="M2697 582 c-34 -35 -34 -71 -2 -106 56 -61 158 -7 140 75 -14 62 -92
80 -138 31z m88 -22 c36 -40 -7 -96 -55 -70 -25 14 -27 65 -2 79 25 15 37 13
57 -9z"/>
</g>
</svg>
